<?xml version="1.0" encoding="utf-8"?>
<!-- Generator: Adobe Illustrator 18.0.0, SVG Export Plug-In . SVG Version: 6.00 Build 0)  -->
<!DOCTYPE svg PUBLIC "-//W3C//DTD SVG 1.1//EN" "http://www.w3.org/Graphics/SVG/1.1/DTD/svg11.dtd">
<svg version="1.1" id="Layer_1" xmlns="http://www.w3.org/2000/svg" xmlns:xlink="http://www.w3.org/1999/xlink" x="0px" y="0px"
	 viewBox="0 0 143.6 35.2" enable-background="new 0 0 143.6 35.2" xml:space="preserve">
<g>
	<path d="M40,33.4V16.6c0-6.1,4.1-10.7,11.4-10.7c7.3,0,11.4,4.6,11.4,10.7v16.8h4.3V17c0-4.8-1.5-8.5-4.5-11.2
		c-3.1-2.7-6.8-4-11.2-4s-8.1,1.3-11.1,4c-3.1,2.7-4.6,6.4-4.6,11.2v16.4H40z"/>
	<path d="M96.7,1.8v16.8c0,6.1-4.1,10.7-11.4,10.7C78,29.3,74,24.7,74,18.6V1.8h-4.3v16.4c0,4.8,1.5,8.5,4.5,11.2
		c3.1,2.7,6.8,4,11.2,4s8.1-1.3,11.1-4c3.1-2.7,4.6-6.4,4.6-11.2V1.8H96.7z"/>
	<path d="M137.5,1.8v16.8c0,6.1-4.1,10.7-11.4,10.7c-7.3,0-11.4-4.6-11.4-10.7V1.8h-4.3v16.4c0,4.8,1.5,8.5,4.5,11.2
		c3.1,2.7,6.8,4,11.2,4c4.4,0,8.1-1.3,11.1-4c3.1-2.7,4.6-6.4,4.6-11.2V1.8H137.5z"/>
	<path d="M1.6,6.2h16.8c6.1,0,10.7,4.1,10.7,11.4c0,7.3-4.6,11.4-10.7,11.4H1.6v4.3h16.4c4.8,0,8.5-1.5,11.2-4.5
		c2.7-3.1,4-6.8,4-11.2s-1.3-8.1-4-11.1c-2.7-3.1-6.4-4.6-11.2-4.6H1.6V6.2z"/>
	<rect x="103.6" y="1.8" width="4.2" height="31.6"/>
</g>
<rect x="0.5" y="0.5" fill="none" stroke="#000000" stroke-miterlimit="10" width="142.6" height="34.2"/>
</svg>
