<?xml version="1.0" encoding="utf-8"?>
<!-- Generator: Adobe Illustrator 18.0.0, SVG Export Plug-In . SVG Version: 6.00 Build 0)  -->
<!DOCTYPE svg PUBLIC "-//W3C//DTD SVG 1.1//EN" "http://www.w3.org/Graphics/SVG/1.1/DTD/svg11.dtd">
<svg version="1.1" id="Layer_1" xmlns="http://www.w3.org/2000/svg" xmlns:xlink="http://www.w3.org/1999/xlink" x="0px" y="0px"
	 viewBox="1.4 273.3 717 173.4" enable-background="new 1.4 273.3 717 173.4" xml:space="preserve">
<g>
	<path fill="#FFFFFF" d="M200.6,439.2V355c0-30.6,20.6-53.6,57.2-53.6s57.2,23.1,57.2,53.6v84.2h21.6V357c0-24.1-7.5-42.6-22.6-56.2
		c-15.5-13.5-34.1-20.1-56.2-20.1s-40.6,6.5-55.7,20.1C186.5,314.4,179,332.9,179,357v82.2H200.6z"/>
	<path fill="#FFFFFF" d="M484.8,280.8V365c0,30.6-20.6,53.6-57.2,53.6S371,395.6,371,365v-84.2h-21.6V363c0,24.1,7.5,42.6,22.6,56.2
		c15.5,13.5,34.1,20.1,56.2,20.1s40.6-6.5,55.7-20.1c15.5-13.5,23.1-32.1,23.1-56.2v-82.2H484.8z"/>
	<path fill="#FFFFFF" d="M689.4,280.8V365c0,30.6-20.6,53.6-57.2,53.6s-57.2-23.1-57.2-53.6v-84.2h-21.6V363
		c0,24.1,7.5,42.6,22.6,56.2c15.5,13.5,34.1,20.1,56.2,20.1c22.1,0,40.6-6.5,55.7-20.1c15.5-13.5,23.1-32.1,23.1-56.2v-82.2H689.4z"
		/>
	<path fill="#FFFFFF" d="M8,302.8h84.2c30.6,0,53.6,20.6,53.6,57.2s-23.1,57.2-53.6,57.2H8v21.6h82.2c24.1,0,42.6-7.5,56.2-22.6
		c13.5-15.5,20.1-34.1,20.1-56.2c0-22.1-6.5-40.6-20.1-55.7c-13.5-15.5-32.1-23.1-56.2-23.1H8V302.8z"/>
	<rect x="519.4" y="280.8" fill="#FFFFFF" width="21.1" height="158.4"/>
</g>
<rect x="2.5" y="274.3" fill="none" stroke="#FFFFFF" stroke-width="2" stroke-miterlimit="10" width="715" height="171.5"/>
</svg>
